<svg xmlns="http://www.w3.org/2000/svg" viewBox="0 0 534 534" width="16px" height="16px">
    <path fill="#8E8E8E" d="M106.391,449.3L55.971,422.492L55.971,170.15L132.453,208.887L157.039,353.988L181.393,233.675L258.309,272.2L258.309,524.317L207.692,497.967L207.692,348.583L178.843,485.108L133.961,461.458L106.391,297.217L106.391,449.3Z"/>
    <path fill="#4E4E4E" d="M288.713,272.138L369.102,227.996L369.102,410.917L480.312,350.092L480.746,419.038L288.914,525.613L288.713,272.138Z"/>
    <path fill="#6E6E6E" d="M243.325,6.283C243.325,6.283 336.167,50.113 350.975,57.33C365.787,64.562 400.879,81.584 412.925,93.441C425,105.317 426.646,124.39 426.646,127.991C426.646,131.607 436.504,150.175 366.879,201.241C297.233,252.307 223.779,228.068 204.038,218.263C184.292,208.457 64.763,151.214 64.763,151.214L126.725,101.701C126.725,101.701 248.438,159.458 264.892,167.212C281.35,174.935 305.471,177.508 327.392,158.435C349.317,139.346 329.038,126.457 314.796,119.747C300.533,113.04 183.2,56.306 183.2,56.306L243.325,6.283Z"/>
</svg>
