<?xml version="1.0" encoding="UTF-8" standalone="no"?>
<svg
        xmlns:dc="http://purl.org/dc/elements/1.1/"
        xmlns:cc="http://creativecommons.org/ns#"
        xmlns:rdf="http://www.w3.org/1999/02/22-rdf-syntax-ns#"
        xmlns="http://www.w3.org/2000/svg"
        xmlns:xlink="http://www.w3.org/1999/xlink"
        xmlns:sodipodi="http://sodipodi.sourceforge.net/DTD/sodipodi-0.dtd"
        xmlns:inkscape="http://www.inkscape.org/namespaces/inkscape"
        viewBox="0 0 40 40"
        version="1.1"
        id="svg4008"
        sodipodi:docname="pluginIcon.svg"
        width="40"
        height="40"
        inkscape:version="0.92.4 (5da689c313, 2019-01-14)">
  <metadata
          id="metadata4012">
    <rdf:RDF>
      <cc:Work
              rdf:about="">
        <dc:format>image/svg+xml</dc:format>
        <dc:type
                rdf:resource="http://purl.org/dc/dcmitype/StillImage"/>
        <dc:title>file_type_plantuml</dc:title>
      </cc:Work>
    </rdf:RDF>
  </metadata>
  <sodipodi:namedview
          pagecolor="#ffffff"
          bordercolor="#666666"
          borderopacity="1"
          objecttolerance="10"
          gridtolerance="10"
          guidetolerance="10"
          inkscape:pageopacity="0"
          inkscape:pageshadow="2"
          inkscape:window-width="2560"
          inkscape:window-height="1377"
          id="namedview4010"
          showgrid="false"
          inkscape:zoom="7.375"
          inkscape:cx="40.001386"
          inkscape:cy="37.040858"
          inkscape:window-x="-8"
          inkscape:window-y="-8"
          inkscape:window-maximized="1"
          inkscape:current-layer="svg4008"/>
  <defs
          id="defs3956">
    <linearGradient
            id="a"
            x1="-33.423"
            y1="-250.911"
            x2="-33.353001"
            y2="-250.858"
            gradientTransform="matrix(37.134,26.001,13.575,-19.387,4673.473,-3982.019)"
            gradientUnits="userSpaceOnUse">
      <stop
              offset="0"
              stop-color="#767676"
              id="stop3928"/>
      <stop
              offset="1"
              id="stop3930"/>
    </linearGradient>
    <linearGradient
            id="b"
            x1="-32.106998"
            y1="-242.563"
            x2="-32.028"
            y2="-242.586"
            gradientTransform="matrix(81.081,56.774,17.306,-24.715,6804.021,-4149.644)"
            gradientUnits="userSpaceOnUse">
      <stop
              offset="0"
              stop-color="#0079b9"
              id="stop3933"/>
      <stop
              offset="1"
              id="stop3935"/>
    </linearGradient>
    <linearGradient
            id="c"
            x1="-33.282001"
            y1="-243.423"
            x2="-33.223999"
            y2="-243.455"
            gradientTransform="matrix(60.003,42.015,34.184,-48.82,10343.005,-10469.084)"
            xlink:href="#b"/>
    <linearGradient
            id="d"
            x1="12.356"
            y1="26.268"
            x2="14.011"
            y2="26.268"
            gradientUnits="userSpaceOnUse">
      <stop
              offset="0"
              stop-color="#595959"
              id="stop3939"/>
      <stop
              offset="0.087"
              stop-color="#6e6e6e"
              id="stop3941"/>
      <stop
              offset="0.242"
              stop-color="#8c8c8c"
              id="stop3943"/>
      <stop
              offset="0.405"
              stop-color="#a4a4a4"
              id="stop3945"/>
      <stop
              offset="0.577"
              stop-color="#b5b5b5"
              id="stop3947"/>
      <stop
              offset="0.765"
              stop-color="#bfbfbf"
              id="stop3949"/>
      <stop
              offset="1"
              stop-color="#c2c2c2"
              id="stop3951"/>
    </linearGradient>
    <linearGradient
            id="e"
            x1="18.291"
            y1="26.171"
            x2="19.945999"
            y2="26.171"
            xlink:href="#d"
            gradientTransform="matrix(1.4285007,0,0,1.5082468,-2.8570228,-4.1313005)"/>
    <linearGradient
            id="f"
            x1="24.440001"
            y1="26.171"
            x2="26.096001"
            y2="26.171"
            xlink:href="#d"
            gradientTransform="matrix(1.4285007,0,0,1.5082468,-2.8570228,-4.1313005)"/>
    <linearGradient
            inkscape:collect="always"
            xlink:href="#b"
            id="linearGradient4018"
            gradientUnits="userSpaceOnUse"
            gradientTransform="matrix(81.081,56.774,17.306,-24.715,6804.021,-4149.644)"
            x1="-32.106998"
            y1="-242.563"
            x2="-32.028"
            y2="-242.586"/>
    <linearGradient
            inkscape:collect="always"
            xlink:href="#d"
            id="linearGradient4020"
            gradientUnits="userSpaceOnUse"
            x1="12.356"
            y1="26.268"
            x2="14.011"
            y2="26.268"
            gradientTransform="matrix(1.4285007,0,0,1.5082468,-2.8570228,-4.1313005)"/>
  </defs>
  <title
          id="title3958">file_type_plantuml
  </title>
  <polygon
          points="20.305,17.872 27.16,22.418 21.72,25.493 14.861,20.999 "
          style="fill:#1c0a42"
          id="polygon3960"
          transform="matrix(1.4285007,0,0,1.5082468,-2.8570227,-4.1313005)"/>
  <path
          d="m 28.164298,34.508474 -0.07857,-0.0543 -10.006648,-6.922853 8.075315,-4.897277 10.079501,7.058595 z m -9.499529,-6.957542 9.510957,6.578972 7.472487,-4.459886 -9.506672,-6.652876 z"
          id="path3962"
          inkscape:connector-curvature="0"
          style="stroke-width:1.46783233"/>
  <polygon
          points="26.401,11.909 29.418,13.592 27.07,15.088 24.213,13.247 "
          style="fill:url(#a)"
          id="polygon3964"
          transform="matrix(1.4285007,0,0,1.5082468,-2.8570227,-4.1313005)"/>
  <path
          d="m 35.811062,18.816674 -4.368355,-2.971246 3.409831,-2.202041 4.611201,2.714844 z m -3.79124,-2.965213 3.792669,2.58061 3.054134,-2.051216 -3.999802,-2.360406 z"
          id="path3966"
          inkscape:connector-curvature="0"
          style="stroke-width:1.46783233"/>
  <polygon
          points="14.498,17.807 21.354,22.354 15.914,25.429 9.055,20.935 "
          style="fill:#ffbd3f"
          id="polygon3968"
          transform="matrix(1.4285007,0,0,1.5082468,-2.8570227,-4.1313005)"/>
  <path
          d="m 19.870423,34.410438 -0.07857,-0.0543 -10.0066482,-6.921344 8.0710292,-4.898786 10.079501,7.058595 z m -9.499529,-6.957542 9.510957,6.574448 7.472487,-4.459886 -9.505243,-6.655894 z"
          id="path3970"
          inkscape:connector-curvature="0"
          style="stroke-width:1.46783233"/>
  <polygon
          points="7.99,17.966 14.954,22.366 9.577,25.504 2.218,20.849 "
          style="fill:#a11f40"
          id="polygon3972"
          transform="matrix(1.4285007,0,0,1.5082468,-2.8570227,-4.1313005)"/>
  <path
          d="M 10.820871,34.523557 -2.1155335e-5,27.297546 8.5709828,22.772806 18.804762,29.600639 Z M 0.62280484,27.330728 10.828014,34.144987 18.210505,29.596114 8.5481268,23.151376 Z"
          id="path3974"
          inkscape:connector-curvature="0"
          style="stroke-width:1.46783233"/>
  <polygon
          points="2.111,21.021 9.443,25.515 9.443,29.063 2.111,24.332 "
          style="fill:url(#linearGradient4018)"
          id="polygon3976"
          transform="matrix(1.4285007,0,0,1.5082468,-2.8570227,-4.1313005)"/>
  <path
          d="M 10.785159,40.000001 -2.1155335e-5,32.656347 V 27.283972 L 10.785159,34.261122 Z M 0.31139184,32.479882 10.47946,39.405752 V 34.442111 L 0.31139184,27.863139 Z"
          id="path3978"
          inkscape:connector-curvature="0"
          style="stroke-width:1.46783233"/>
  <polygon
          points="24.071,13.343 27.009,15.222 27.009,22.131 24.071,20.247 "
          style="fill:url(#c)"
          id="polygon3980"
          transform="matrix(1.4285007,0,0,1.5082468,-2.8570227,-4.1313005)"/>
  <path
          d="M 35.802491,29.395518 31.452707,26.449911 V 15.845428 l 4.349784,2.936556 z m -4.196935,-3.034593 4.044086,2.737468 V 18.870971 l -4.044086,-2.729927 z"
          id="path3982"
          inkscape:connector-curvature="0"
          style="stroke-width:1.46783233"/>
  <polygon
          points="29.514,13.775 29.514,29.149 28.331,29.149 9.646,29.149 9.646,25.601 15.086,22.526 15.785,25.601 15.796,25.601 21.472,22.526 21.891,25.601 21.945,25.601 27.149,22.526 27.149,15.194 "
          style="fill:#ffffff"
          id="polygon3984"
          transform="matrix(1.4285007,0,0,1.5082468,-2.8570227,-4.1313005)"/>
  <path
          d="M 39.456596,39.993968 H 10.769445 v -5.607662 l 8.028174,-4.7917 0.999951,4.649925 8.142454,-4.655958 0.602827,4.675565 7.229642,-4.511166 V 18.692998 l 3.685532,-2.334767 z M 11.075144,39.669695 H 39.150897 V 16.929857 l -3.072705,1.945638 v 11.058467 l -0.07571,0.04676 -7.469631,4.660483 H 28.284292 L 27.697179,30.095344 19.749001,34.6412 h -0.178563 l -0.979951,-4.551889 -7.513914,4.484018 z"
          id="path3986"
          inkscape:connector-curvature="0"
          style="stroke-width:1.46783233"/>
  <rect
          x="14.793531"
          y="34.238503"
          width="2.3655972"
          height="2.4976568"
          rx="0.30712765"
          ry="0.32427308"
          style="fill:url(#linearGradient4020);stroke-width:1.46783233"
          id="rect3988"/>
  <path
          d="m 16.856287,36.893012 h -1.757056 a 0.45997722,0.48565548 0 0 1 -0.459977,-0.485655 v -1.844586 a 0.45997722,0.48565548 0 0 1 0.459977,-0.485655 h 1.757056 a 0.45997722,0.48565548 0 0 1 0.459977,0.485655 v 1.849111 a 0.45997722,0.48565548 0 0 1 -0.459977,0.48113 z M 15.099231,34.39988 a 0.15427807,0.16289066 0 0 0 -0.15285,0.161383 v 1.84911 a 0.15427807,0.16289066 0 0 0 0.15285,0.161383 h 1.757056 a 0.15427807,0.16289066 0 0 0 0.152849,-0.161383 v -1.847602 a 0.15427807,0.16289066 0 0 0 -0.152849,-0.161382 z"
          id="path3990"
          inkscape:connector-curvature="0"
          style="stroke-width:1.46783233"/>
  <rect
          x="23.271685"
          y="34.092201"
          width="2.3655972"
          height="2.4976568"
          rx="0.30712765"
          ry="0.32427308"
          style="fill:url(#e);stroke-width:1.46783233"
          id="rect3992"/>
  <path
          d="m 25.330153,36.751237 h -1.75277 a 0.45997722,0.48565548 0 0 1 -0.459978,-0.485655 v -1.849111 a 0.45997722,0.48565548 0 0 1 0.459978,-0.485655 h 1.751341 a 0.45997722,0.48565548 0 0 1 0.459978,0.485655 v 1.849111 a 0.45997722,0.48565548 0 0 1 -0.458549,0.485655 z m -1.751342,-2.497656 a 0.15427807,0.16289066 0 0 0 -0.15285,0.161382 v 1.849111 a 0.15427807,0.16289066 0 0 0 0.15285,0.161382 h 1.751342 a 0.15427807,0.16289066 0 0 0 0.152849,-0.161382 v -1.847603 a 0.15427807,0.16289066 0 0 0 -0.152849,-0.161382 z"
          id="path3994"
          inkscape:connector-curvature="0"
          style="stroke-width:1.46783233"/>
  <rect
          x="32.055531"
          y="34.092201"
          width="2.3655972"
          height="2.4976568"
          rx="0.30712765"
          ry="0.32427308"
          style="fill:url(#f);stroke-width:1.46783233"
          id="rect3996"/>
  <path
          d="m 34.114004,36.751237 h -1.751342 a 0.45997722,0.48565548 0 0 1 -0.459977,-0.485655 v -1.849111 a 0.45997722,0.48565548 0 0 1 0.459977,-0.485655 h 1.751342 a 0.45997722,0.48565548 0 0 1 0.459977,0.485655 v 1.849111 a 0.45997722,0.48565548 0 0 1 -0.459977,0.485655 z m -1.751342,-2.497656 a 0.15427807,0.16289066 0 0 0 -0.15285,0.161382 v 1.849111 a 0.15427807,0.16289066 0 0 0 0.15285,0.161382 h 1.751342 a 0.15427807,0.16289066 0 0 0 0.152849,-0.161382 v -1.847603 a 0.15427807,0.16289066 0 0 0 -0.152849,-0.161382 z"
          id="path3998"
          inkscape:connector-curvature="0"
          style="stroke-width:1.46783233"/>
  <path
          d="m 36.019624,12.80631 c -0.07428,0.104069 -0.595685,-0.39516 -0.932811,-0.793338 a 6.296831,6.648352 0 0 1 -0.737107,-1.10102 3.7141018,3.9214417 0 0 1 -0.494261,-1.1673829 3.3684046,3.556446 0 0 1 -0.07428,-1.0286243 4.2269335,4.4629024 0 0 1 0.184277,-1.1296769 4.4883492,4.7389115 0 0 1 1.12423,-1.8204532 22.187473,23.42609 0 0 0 1.832766,-2.1115455 4.3740691,4.6182518 0 0 0 0.684252,-1.3981448 5.6840042,6.0013141 0 0 0 0.215703,-1.28955089 c 0.02714,-0.549002 -0.03571,-0.894391 0.03286,-0.924555 0.06857,-0.03017 0.307128,0.413259 0.40998,0.850651 A 4.5240617,4.7766177 0 0 1 37.610979,4.0599876 9.8566548,10.406903 0 0 1 36.0482,6.243929 3.9998019,4.2230911 0 0 0 34.835402,8.1051048 3.5226827,3.7193367 0 0 0 34.712551,9.1412704 4.9497549,5.2260753 0 0 0 35.392518,11.466987 c 0.411408,0.862717 0.68568,1.25637 0.627112,1.339323 z"
          style="fill:#ea2d2e;stroke-width:1.46783233"
          id="path4000"
          inkscape:connector-curvature="0"/>
  <path
          d="m 35.988197,12.860607 c -0.177135,0 -0.702823,-0.55051 -0.929954,-0.820486 A 6.3968261,6.7539293 0 0 1 34.315422,10.933068 3.7540998,3.9636727 0 0 1 33.821161,9.7551268 3.3926891,3.5820862 0 0 1 33.745451,8.7144365 4.2540751,4.491559 0 0 1 33.931157,7.5742019 4.5826302,4.8384558 0 0 1 35.063958,5.7401745 c 0.419979,-0.4992297 0.71425,-0.7963543 0.941382,-1.0346573 a 6.2754035,6.6257283 0 0 0 0.888527,-1.0723635 4.3597841,4.6031693 0 0 0 0.679966,-1.3860788 5.6440062,5.9590832 0 0 0 0.214275,-1.28050139 c 0.01143,-0.239811 0,-0.443425 0,-0.592741 0,-0.239811 -0.0086,-0.339356 0.05428,-0.366504 a 0.07142503,0.07541234 0 0 1 0.06143,0 1.7513418,1.8491106 0 0 1 0.39998,0.873275 4.5240617,4.7766177 0 0 1 -0.65711,3.19899129 9.8966528,10.449134 0 0 1 -1.571351,2.1914826 C 35.996767,6.3615724 35.91963,6.446034 35.84392,6.5289876 a 3.2855516,3.4689677 0 0 0 -0.972809,1.5866749 3.5283967,3.7253697 0 0 0 -0.117137,1.0150501 4.9397554,5.2155175 0 0 0 0.675681,2.3076174 c 0.162849,0.348405 0.307127,0.625923 0.412836,0.828028 0.184277,0.354438 0.254274,0.487164 0.202848,0.556543 v 0 a 0.07285354,0.07692059 0 0 1 -0.05714,0.03017 z M 37.872389,0.09179051 a 1.2327961,1.301617 0 0 0 0,0.286567 c 0,0.150824 0.01,0.355946 0,0.603298 A 5.7440013,6.0646605 0 0 1 37.655257,2.2802563 4.4369231,4.6846146 0 0 1 36.965291,3.6889588 6.3382576,6.6920912 0 0 1 36.066764,4.7733883 c -0.231417,0.238303 -0.519974,0.5339194 -0.938525,1.0301326 a 4.5254902,4.7781259 0 0 0 -1.117087,1.8098954 4.1897925,4.4236879 0 0 0 -0.182849,1.1206274 3.3212641,3.5066739 0 0 0 0.07428,1.0180666 3.6998168,3.9063593 0 0 0 0.487118,1.1568257 6.31683,6.6694675 0 0 0 0.732821,1.093479 2.9069989,3.0692823 0 0 0 0.872814,0.793337 1.6899163,1.784256 0 0 0 -0.20999,-0.467556 C 35.679637,12.126091 35.535359,11.848573 35.371081,11.497152 A 4.9997524,5.2788639 0 0 1 34.681115,9.1412704 3.6141067,3.8158645 0 0 1 34.801109,8.1035966 3.3926891,3.5820862 0 0 1 35.792489,6.482232 c 0.07428,-0.082954 0.151421,-0.1674154 0.229989,-0.2579102 a 9.8266562,10.37523 0 0 0 1.557065,-2.174892 4.4554937,4.7042219 0 0 0 0.651397,-3.14167829 1.8299094,1.9320642 0 0 0 -0.358554,-0.815961 z"
          id="path4002"
          inkscape:connector-curvature="0"
          style="stroke-width:1.46783233"/>
  <path
          d="m 39.958,5.0493975 c -0.02714,-0.1327257 -0.617112,-0.06033 -1.094232,0.110102 a 3.7141018,3.9214417 0 0 0 -1.512782,1.0889542 3.9998019,4.2230911 0 0 0 -1.308506,2.7977971 4.245504,4.4825096 0 0 0 0.368553,1.5987422 c 0.315698,0.862717 0.649968,1.165874 0.634254,1.847602 -0.01,0.452474 -0.162849,0.729991 -0.06857,0.828027 0.09428,0.09804 0.448549,-0.150824 0.659967,-0.472081 a 2.5713012,2.7148443 0 0 0 0.369982,-1.541428 C 37.940957,10.077892 37.149568,9.7762423 37.13814,8.5922685 A 2.6541543,2.8023226 0 0 1 37.322416,7.5726937 C 37.955242,5.6858776 40.009426,5.2982582 39.958,5.0493975 Z"
          style="fill:#ea2d2e;stroke-width:1.46783233"
          id="path4004"
          inkscape:connector-curvature="0"/>
  <path
          d="m 37.046716,13.390002 a 0.13427906,0.1417752 0 0 1 -0.09857,-0.03921 c -0.06571,-0.06938 -0.04285,-0.184006 -0.0071,-0.357455 a 2.4541642,2.591168 0 0 0 0.06428,-0.49923 1.9627599,2.0723311 0 0 0 -0.305699,-1.085937 7.1425034,7.5412341 0 0 1 -0.325698,-0.746582 4.2569321,4.4945755 0 0 1 -0.369982,-1.6138245 4.0140869,4.2381736 0 0 1 1.318506,-2.8264538 3.7712418,3.9817716 0 0 1 1.528496,-1.099512 2.117038,2.2352218 0 0 1 1.094231,-0.1508246 0.09285254,0.09803604 0 0 1 0.05286,0.069379 v 0 c 0.02143,0.1055773 -0.131422,0.1824979 -0.437121,0.3378473 a 3.8998069,4.1175138 0 0 0 -2.202748,2.2065643 2.6098708,2.755567 0 0 0 -0.18142,1.0060007 2.3498836,2.481066 0 0 0 0.415694,1.3347984 2.6984378,2.8490783 0 0 1 0.452835,1.3785372 2.5913003,2.7359597 0 0 1 -0.377125,1.567069 1.1556571,1.2201717 0 0 1 -0.601398,0.51582 z m 2.698437,-8.3692612 a 3.024136,3.1929585 0 0 0 -0.868528,0.1764649 3.6969598,3.9033428 0 0 0 -1.497069,1.0783965 3.9483759,4.1687942 0 0 0 -1.298507,2.7706486 4.1926495,4.4267044 0 0 0 0.365696,1.5836592 7.0782209,7.473363 0 0 0 0.321413,0.739041 2.0470415,2.1613177 0 0 1 0.31427,1.123644 2.5213037,2.6620556 0 0 1 -0.06714,0.514312 c -0.02714,0.137251 -0.05,0.245844 -0.01286,0.28355 a 0.06571103,0.06937935 0 0 0 0.05428,0.01508 1.098517,1.1598418 0 0 0 0.545687,-0.482639 2.5613017,2.7042866 0 0 0 0.362839,-1.515788 2.6341553,2.7812071 0 0 0 -0.442835,-1.3423394 2.4441647,2.5806103 0 0 1 -0.42855,-1.3740128 2.6812958,2.8309793 0 0 1 0.185705,-1.0346573 3.9655179,4.1868932 0 0 1 2.247032,-2.2503036 c 0.179991,-0.092003 0.404265,-0.2051215 0.395694,-0.2473524 l -0.01143,-0.010558 a 0.37712418,0.39817716 0 0 0 -0.165706,-0.027148 z"
          id="path4006"
          inkscape:connector-curvature="0"
          style="stroke-width:1.46783233"/>
</svg>
